<svg
  width="30"
  height="30"
  viewBox="0 0 30 30"
  fill="none"
  xmlns="http://www.w3.org/2000/svg"
>
  <path
    fill-rule="evenodd"
    clip-rule="evenodd"
    d="M6.18613 12.5L13.7623 4.92389L14.7051 5.8667L7.12893 13.4428L6.18613 12.5Z"
    fill="#999999"
  />
  <path
    fill-rule="evenodd"
    clip-rule="evenodd"
    d="M8.6998 15.014L16.2759 7.43781L17.2188 8.38062L9.64261 15.9568L8.6998 15.014Z"
    fill="#999999"
  />
  <path
    fill-rule="evenodd"
    clip-rule="evenodd"
    d="M14.0435 20.3567L21.6197 12.7806L22.5625 13.7234L14.9864 21.2995L14.0435 20.3567Z"
    fill="#999999"
  />
  <path
    fill-rule="evenodd"
    clip-rule="evenodd"
    d="M16.5572 22.8706L24.1334 15.2945L25.0762 16.2373L17.5 23.8134L16.5572 22.8706Z"
    fill="#999999"
  />
  <path
    fill-rule="evenodd"
    clip-rule="evenodd"
    d="M16.5564 22.8709C13.9413 25.486 9.71081 25.4954 7.10731 22.8919C4.50382 20.2884 4.51324 16.0579 7.12836 13.4428L6.18555 12.5C3.04741 15.6381 3.0361 20.7148 6.16029 23.839C9.28449 26.9632 14.3611 26.9518 17.4993 23.8137L16.5564 22.8709Z"
    fill="#999999"
  />
  <path
    fill-rule="evenodd"
    clip-rule="evenodd"
    d="M21.619 12.7806L22.5618 13.7234C25.0026 11.2826 25.0113 7.3341 22.5814 4.90417C20.1515 2.47424 16.203 2.48303 13.7622 4.92381L14.705 5.86662C16.6228 3.94887 19.7252 3.94196 21.6344 5.85119C23.5436 7.76042 23.5367 10.8628 21.619 12.7806Z"
    fill="#999999"
  />
  <path
    fill-rule="evenodd"
    clip-rule="evenodd"
    d="M8.70117 15.0144C6.95776 16.7578 6.95148 19.5782 8.68714 21.3138C10.4228 23.0495 13.2432 23.0432 14.9866 21.2998L14.0438 20.357C12.8234 21.5774 10.8491 21.5818 9.63416 20.3668C8.4192 19.1518 8.42359 17.1776 9.64398 15.9572L8.70117 15.0144Z"
    fill="#999999"
  />
</svg>
